<svg width="1200" height="1200" xmlns="http://www.w3.org/2000/svg" xmlns:xlink="http://www.w3.org/1999/xlink" version="1.1"><g transform="scale(11.032791978076226) translate(4.383333351877001, 7.299329545762809)">                        <g fill="#000000"><path xmlns="http://www.w3.org/2000/svg" d="M69.976,32.999l-4.394,4.27L52.737,14.09L37.973,43.38l-9.041-7.916L1.055,80.078h97.89L69.976,32.999z M20.241,77.816  h-4.806l5.905-7.783L20.241,77.816z M12.021,77.791l-6.22,0.084l21.955-36.213L12.021,77.791z M50.689,59.977v13.125l-10.025-15.72  l-4.395,3.357v-8.394L29.678,39.22l12.359,10.989l2.197-0.916l11.673,11.446L50.689,59.977z M52.153,39.22l-3.57,3.612l-0.503-2.137  l-6.591,6.817l-2.426-2.544l13.687-26.352l0.549,14.905l3.251,0.458l6.637,12.413L52.153,39.22z M65.978,41.174l3.479-3.815  l9.842,15.923L69.045,41.886l6.774,22.791L65.978,41.174z"/></g>        </g></svg>