
        <svg xmlns="http://www.w3.org/2000/svg" xmlns:xlink="http://www.w3.org/1999/xlink" version="1.1" width="3162.1621621621625" 
        height="801.7621220769109" viewBox="0 0 3162.1621621621625 801.7621220769109">
			
			<g transform="scale(8.108108108108109) translate(10, 10)">
				<defs id="SvgjsDefs15090"><linearGradient id="SvgjsLinearGradient15095"><stop id="SvgjsStop15096" stop-color="#905e26" offset="0"></stop><stop id="SvgjsStop15097" stop-color="#f5ec9b" offset="0.5"></stop><stop id="SvgjsStop15098" stop-color="#905e26" offset="1"></stop></linearGradient><linearGradient id="SvgjsLinearGradient15099"><stop id="SvgjsStop15100" stop-color="#905e26" offset="0"></stop><stop id="SvgjsStop15101" stop-color="#f5ec9b" offset="0.5"></stop><stop id="SvgjsStop15102" stop-color="#905e26" offset="1"></stop></linearGradient></defs><g id="SvgjsG15091" featureKey="odWo6G-0" transform="matrix(1,0,0,1,0,0)" fill="url(#SvgjsLinearGradient15095)"><path xmlns="http://www.w3.org/2000/svg" fill="url(#SvgjsLinearGradient15095)" d="M87.499,53.748l6.302,6.301L100,53.851L69.706,23.558l-7.86,7.86l-12.299-12.3v-8.994h12.871V0H47.517  v10.125h0.006v8.994L0,66.641l9.432,9.432l8.519-8.52l7.239,7.238l11.562-11.562l15.656,15.655l13.438-13.437l5.92,5.921  l5.814-5.815l10.287,10.29l9.201-9.202L85.837,55.409L87.499,53.748z M69.706,26.435l0.002,0.002v12.843l-6.424-6.423L69.706,26.435  z M49.552,2.034h10.835V8.09H49.552V2.034z M25.19,71.928l-7.239-7.237l-8.519,8.52l-6.571-6.57l45.674-45.673V72.15L36.753,60.367  L25.19,71.928z"></path></g><g id="SvgjsG15092" featureKey="VGK2BT-0" transform="matrix(5.30000114440918,0,0,5.30000114440918,116.40967491233518,-30.22846571205828)" fill="url(#SvgjsLinearGradient15099)"><path d="M7.949 18.4746 c0.10169 0.15254 0.10136 0.27119 -0.01728 0.39 c-0.74576 0.71186 -1.7288 1.2541 -2.9153 1.2541 c-2.339 0 -4.339 -1.8812 -4.339 -4.288 c0 -2.4237 2 -4.339 4.339 -4.339 c1.1864 0 2.1525 0.49153 2.8475 1.1864 c0.11864 0.11881 0.11864 0.25441 0.016949 0.38983 l-0.64407 0.81356 c-0.10169 0.13559 -0.20339 0.15254 -0.40678 0.016949 c-0.42373 -0.42373 -1 -0.67797 -1.7627 -0.67797 c-1.61 0 -2.61 1.2542 -2.61 2.5932 c0 1.322 1 2.5932 2.6271 2.5932 c0.76271 0 1.3051 -0.28814 1.7966 -0.77966 c0.18644 -0.15254 0.30525 -0.10169 0.4239 0.033898 z M14.643874576271187 19.4578 c0.050847 0.13559 -0.050681 0.22 -0.16933 0.30475 c-0.28814 0.18644 -0.91525 0.32203 -1.5424 0.32203 c-1.8136 0 -2.4746 -0.9322 -2.4746 -3.1186 l0 -3.5763 l-1 0 c-0.15254 0 -0.27119 -0.10169 -0.27119 -0.27119 l0 -0.28814 c0 -0.13559 0.033898 -0.23712 0.13559 -0.33898 c0.98305 -0.79661 1.7627 -1.6269 2.4407 -3.339 c0.050847 -0.11864 0.10169 -0.18644 0.18644 -0.18644 l0.18644 0 c0.13559 0 0.18644 0.067797 0.18644 0.22034 l0 2.4237 l1.7797 0 c0.15254 0 0.28814 0.11881 0.28814 0.28831 l0 1.2203 c0 0.15254 -0.13559 0.27119 -0.28814 0.27119 l-1.4746 0 c-0.13559 0 -0.25424 -0.016949 -0.32203 -0.050847 l0 3.4576 c0 0.98305 0.11864 1.5424 0.94915 1.5424 c0.35593 0 0.59322 -0.050847 0.79661 -0.10169 s0.33898 0.033898 0.37288 0.22051 z M20.186291525423727 20.11864 c2.3729 0 4.339 -1.8812 4.339 -4.3049 c0 -2.4746 -1.9661 -4.322 -4.339 -4.322 s-4.339 1.8475 -4.339 4.322 c0 2.4237 1.9661 4.3049 4.339 4.3049 z M20.186291525423727 18.39 c-1.4576 0 -2.5424 -1.2034 -2.5424 -2.5593 c0 -1.4068 1.0847 -2.6102 2.5424 -2.6102 s2.5424 1.2034 2.5424 2.6102 c0 1.3559 -1.0847 2.5593 -2.5424 2.5593 z M34.423589830508476 14.8647 c0.18644 0 0.27085 0.10186 0.27085 0.28831 l0 1.2712 c0 0.15254 -0.11864 0.28814 -0.27119 0.28814 l-1.1017 0 l0 3.0169 c0 0.16949 -0.10169 0.27102 -0.28814 0.27102 l-1.2542 0 c-0.16966 0 -0.30525 -0.11864 -0.30525 -0.27102 l0 -3.0169 l-5.2034 0 c-0.15238 0 -0.28797 -0.11864 -0.28797 -0.27119 l-0.016949 -1.2881 c0 -0.084746 0.050847 -0.16949 0.11864 -0.22034 c1.4915 -1.1695 2.7458 -2.7966 3.4576 -4.6441 c0.40678 -1.1017 0.57627 -2.1864 0.59322 -3.2542 c0 -0.15254 0.10169 -0.25424 0.25424 -0.25424 l1.4576 0 c0.15254 0 0.27119 0.11864 0.27119 0.27119 c-0.050847 1.7966 -0.50864 3.678 -1.1864 5.0168 c-0.49153 0.9661 -1.2712 1.9661 -2.1864 2.7966 l2.7288 0 l0 -0.86474 c0 -0.15238 0.11881 -0.27102 0.25441 -0.30492 l1.3051 -0.15254 c0.16966 -0.016784 0.28831 0.11881 0.28831 0.28831 l0 1.0339 l1.1017 0 z M43.69472711864407 19.62712 c-0.22034 -1.661 -0.2368 -3.2032 -0.16916 -4.8302 c0.084746 -2 -1.0169 -3.2881 -3.0847 -3.2881 c-1.3559 0 -2.7627 0.40678 -3.5932 0.86441 c-0.15254 0.084746 -0.25424 0.23712 -0.18644 0.38966 l0.42373 0.98305 c0.067797 0.16949 0.18644 0.22034 0.40678 0.11864 c1.0847 -0.49153 1.9661 -0.72881 2.8305 -0.72881 c0.91525 0 1.4576 0.35593 1.4237 1.322 c-3.1356 0.5422 -5.5254 1.1015 -5.5254 3.3049 c0 1.4746 1.0678 2.3219 2.7966 2.3219 c1.4408 0 2.1864 -0.44051 2.8983 -0.98288 c0.08458 0.50847 0.23712 0.89831 0.5761 0.89831 l1.0169 0 c0.15238 0 0.20322 -0.18644 0.18627 -0.37288 z M39.33912711864407 18.627299999999998 c-0.69492 0 -1.2373 -0.23729 -1.2373 -0.88136 c0 -1.0339 1.8981 -1.3729 3.6102 -1.7288 c-0.016949 0.55932 -0.016949 1.3051 0 1.7966 c-0.55932 0.42373 -1.5085 0.81356 -2.3729 0.81356 z M46.8303186440678 8.492 c-0.55915 0 -1.0168 -0.44068 -1.0168 -1.0169 c0 -0.55932 0.45763 -1.0169 1.0168 -1.0169 c0.55932 0 1.0169 0.45763 1.0169 1.0169 c0 0.57627 -0.45763 1.0169 -1.0169 1.0169 z M47.491318644067796 11.6102 l-1.3051 0 c-0.16949 0 -0.27119 0.11881 -0.27119 0.27119 l0 7.4407 c0 0.38983 0.23729 0.6778 0.64407 0.6778 l0.94915 0 c0.15254 0 0.25424 -0.10153 0.25424 -0.28797 l0 -7.8305 c0 -0.15238 -0.11864 -0.27119 -0.27119 -0.27119 z"></path></g>
			</g>
		</svg>
	