
        <svg xmlns="http://www.w3.org/2000/svg" xmlns:xlink="http://www.w3.org/1999/xlink" version="1.1" width="3162.1621621621625" height="749.1946254001177" viewBox="0 0 3162.1621621621625 749.1946254001177">
			
			<g transform="scale(8.108108108108109) translate(10, 10)">
				<defs id="SvgjsDefs1001"/><g id="SvgjsG1007" featureKey="odWo6G-0" transform="matrix(1.0215548276901245,0,0,1.0215548276901245,-1.0777402739053197,-11.393707468015233)" fill="#fff"><path xmlns="http://www.w3.org/2000/svg" d="M69.976,32.999l-4.394,4.27L52.737,14.09L37.973,43.38l-9.041-7.916L1.055,80.078h97.89L69.976,32.999z M20.241,77.816  h-4.806l5.905-7.783L20.241,77.816z M12.021,77.791l-6.22,0.084l21.955-36.213L12.021,77.791z M50.689,59.977v13.125l-10.025-15.72  l-4.395,3.357v-8.394L29.678,39.22l12.359,10.989l2.197-0.916l11.673,11.446L50.689,59.977z M52.153,39.22l-3.57,3.612l-0.503-2.137  l-6.591,6.817l-2.426-2.544l13.687-26.352l0.549,14.905l3.251,0.458l6.637,12.413L52.153,39.22z M65.978,41.174l3.479-3.815  l9.842,15.923L69.045,41.886l6.774,22.791L65.978,41.174z"/></g><g id="SvgjsG1008" featureKey="VGK2BT-0" transform="matrix(5.30000114440918,0,0,5.30000114440918,116.40967491233518,-34.22846571205828)" fill="#fff"><path d="M7.949 18.4746 c0.10169 0.15254 0.10136 0.27119 -0.01728 0.39 c-0.74576 0.71186 -1.7288 1.2541 -2.9153 1.2541 c-2.339 0 -4.339 -1.8812 -4.339 -4.288 c0 -2.4237 2 -4.339 4.339 -4.339 c1.1864 0 2.1525 0.49153 2.8475 1.1864 c0.11864 0.11881 0.11864 0.25441 0.016949 0.38983 l-0.64407 0.81356 c-0.10169 0.13559 -0.20339 0.15254 -0.40678 0.016949 c-0.42373 -0.42373 -1 -0.67797 -1.7627 -0.67797 c-1.61 0 -2.61 1.2542 -2.61 2.5932 c0 1.322 1 2.5932 2.6271 2.5932 c0.76271 0 1.3051 -0.28814 1.7966 -0.77966 c0.18644 -0.15254 0.30525 -0.10169 0.4239 0.033898 z M14.643874576271187 19.4578 c0.050847 0.13559 -0.050681 0.22 -0.16933 0.30475 c-0.28814 0.18644 -0.91525 0.32203 -1.5424 0.32203 c-1.8136 0 -2.4746 -0.9322 -2.4746 -3.1186 l0 -3.5763 l-1 0 c-0.15254 0 -0.27119 -0.10169 -0.27119 -0.27119 l0 -0.28814 c0 -0.13559 0.033898 -0.23712 0.13559 -0.33898 c0.98305 -0.79661 1.7627 -1.6269 2.4407 -3.339 c0.050847 -0.11864 0.10169 -0.18644 0.18644 -0.18644 l0.18644 0 c0.13559 0 0.18644 0.067797 0.18644 0.22034 l0 2.4237 l1.7797 0 c0.15254 0 0.28814 0.11881 0.28814 0.28831 l0 1.2203 c0 0.15254 -0.13559 0.27119 -0.28814 0.27119 l-1.4746 0 c-0.13559 0 -0.25424 -0.016949 -0.32203 -0.050847 l0 3.4576 c0 0.98305 0.11864 1.5424 0.94915 1.5424 c0.35593 0 0.59322 -0.050847 0.79661 -0.10169 s0.33898 0.033898 0.37288 0.22051 z M20.186291525423727 20.11864 c2.3729 0 4.339 -1.8812 4.339 -4.3049 c0 -2.4746 -1.9661 -4.322 -4.339 -4.322 s-4.339 1.8475 -4.339 4.322 c0 2.4237 1.9661 4.3049 4.339 4.3049 z M20.186291525423727 18.39 c-1.4576 0 -2.5424 -1.2034 -2.5424 -2.5593 c0 -1.4068 1.0847 -2.6102 2.5424 -2.6102 s2.5424 1.2034 2.5424 2.6102 c0 1.3559 -1.0847 2.5593 -2.5424 2.5593 z M34.423589830508476 14.8647 c0.18644 0 0.27085 0.10186 0.27085 0.28831 l0 1.2712 c0 0.15254 -0.11864 0.28814 -0.27119 0.28814 l-1.1017 0 l0 3.0169 c0 0.16949 -0.10169 0.27102 -0.28814 0.27102 l-1.2542 0 c-0.16966 0 -0.30525 -0.11864 -0.30525 -0.27102 l0 -3.0169 l-5.2034 0 c-0.15238 0 -0.28797 -0.11864 -0.28797 -0.27119 l-0.016949 -1.2881 c0 -0.084746 0.050847 -0.16949 0.11864 -0.22034 c1.4915 -1.1695 2.7458 -2.7966 3.4576 -4.6441 c0.40678 -1.1017 0.57627 -2.1864 0.59322 -3.2542 c0 -0.15254 0.10169 -0.25424 0.25424 -0.25424 l1.4576 0 c0.15254 0 0.27119 0.11864 0.27119 0.27119 c-0.050847 1.7966 -0.50864 3.678 -1.1864 5.0168 c-0.49153 0.9661 -1.2712 1.9661 -2.1864 2.7966 l2.7288 0 l0 -0.86474 c0 -0.15238 0.11881 -0.27102 0.25441 -0.30492 l1.3051 -0.15254 c0.16966 -0.016784 0.28831 0.11881 0.28831 0.28831 l0 1.0339 l1.1017 0 z M43.69472711864407 19.62712 c-0.22034 -1.661 -0.2368 -3.2032 -0.16916 -4.8302 c0.084746 -2 -1.0169 -3.2881 -3.0847 -3.2881 c-1.3559 0 -2.7627 0.40678 -3.5932 0.86441 c-0.15254 0.084746 -0.25424 0.23712 -0.18644 0.38966 l0.42373 0.98305 c0.067797 0.16949 0.18644 0.22034 0.40678 0.11864 c1.0847 -0.49153 1.9661 -0.72881 2.8305 -0.72881 c0.91525 0 1.4576 0.35593 1.4237 1.322 c-3.1356 0.5422 -5.5254 1.1015 -5.5254 3.3049 c0 1.4746 1.0678 2.3219 2.7966 2.3219 c1.4408 0 2.1864 -0.44051 2.8983 -0.98288 c0.08458 0.50847 0.23712 0.89831 0.5761 0.89831 l1.0169 0 c0.15238 0 0.20322 -0.18644 0.18627 -0.37288 z M39.33912711864407 18.627299999999998 c-0.69492 0 -1.2373 -0.23729 -1.2373 -0.88136 c0 -1.0339 1.8981 -1.3729 3.6102 -1.7288 c-0.016949 0.55932 -0.016949 1.3051 0 1.7966 c-0.55932 0.42373 -1.5085 0.81356 -2.3729 0.81356 z M46.8303186440678 8.492 c-0.55915 0 -1.0168 -0.44068 -1.0168 -1.0169 c0 -0.55932 0.45763 -1.0169 1.0168 -1.0169 c0.55932 0 1.0169 0.45763 1.0169 1.0169 c0 0.57627 -0.45763 1.0169 -1.0169 1.0169 z M47.491318644067796 11.6102 l-1.3051 0 c-0.16949 0 -0.27119 0.11881 -0.27119 0.27119 l0 7.4407 c0 0.38983 0.23729 0.6778 0.64407 0.6778 l0.94915 0 c0.15254 0 0.25424 -0.10153 0.25424 -0.28797 l0 -7.8305 c0 -0.15238 -0.11864 -0.27119 -0.27119 -0.27119 z"/></g>
			</g>
		</svg>
	