<svg width="1200" height="1200" xmlns="http://www.w3.org/2000/svg" xmlns:xlink="http://www.w3.org/1999/xlink" version="1.1"><g transform="scale(10.8) translate(5.555555555555555, 16.11355802747938)">            <linearGradient id="SvgjsLinearGradient15056"><stop id="SvgjsStop15057" stop-color="#905e26" offset="0"/><stop id="SvgjsStop15058" stop-color="#f5ec9b" offset="0.5"/><stop id="SvgjsStop15059" stop-color="#905e26" offset="1"/></linearGradient><linearGradient id="SvgjsLinearGradient15060"><stop id="SvgjsStop15061" stop-color="#905e26" offset="0"/><stop id="SvgjsStop15062" stop-color="#f5ec9b" offset="0.5"/><stop id="SvgjsStop15063" stop-color="#905e26" offset="1"/></linearGradient>            <g fill="url(#SvgjsLinearGradient15056)"><linearGradient id="SvgjsLinearGradient15056"><stop id="SvgjsStop15057" stop-color="#905e26" offset="0"/><stop id="SvgjsStop15058" stop-color="#f5ec9b" offset="0.5"/><stop id="SvgjsStop15059" stop-color="#905e26" offset="1"/></linearGradient><linearGradient id="SvgjsLinearGradient15060"><stop id="SvgjsStop15061" stop-color="#905e26" offset="0"/><stop id="SvgjsStop15062" stop-color="#f5ec9b" offset="0.5"/><stop id="SvgjsStop15063" stop-color="#905e26" offset="1"/></linearGradient><path xmlns="http://www.w3.org/2000/svg" fill="url(#SvgjsLinearGradient15056)" d="M87.499,53.748l6.302,6.301L100,53.851L69.706,23.558l-7.86,7.86l-12.299-12.3v-8.994h12.871V0H47.517  v10.125h0.006v8.994L0,66.641l9.432,9.432l8.519-8.52l7.239,7.238l11.562-11.562l15.656,15.655l13.438-13.437l5.92,5.921  l5.814-5.815l10.287,10.29l9.201-9.202L85.837,55.409L87.499,53.748z M69.706,26.435l0.002,0.002v12.843l-6.424-6.423L69.706,26.435  z M49.552,2.034h10.835V8.09H49.552V2.034z M25.19,71.928l-7.239-7.237l-8.519,8.52l-6.571-6.57l45.674-45.673V72.15L36.753,60.367  L25.19,71.928z"/></g>        </g></svg>